<svg xmlns="http://www.w3.org/2000/svg" width="156" height="32" viewBox="0 0 156 32" fill="none">
    <g clip-path="url(#clip0_21_406)">
        <path d="M13.054 31.9145C7.90801 31.9145 3.79119 30.6047 0.703583 27.9849L2.20061 25.2033C3.82238 26.4984 5.4847 27.4257 7.18756 27.9849C8.88419 28.5442 10.8553 28.8238 13.1008 28.8238C15.7518 28.8238 17.7946 28.3382 19.2292 27.3668C20.6639 26.3954 21.3812 25.0267 21.3812 23.2606C21.3812 22.2303 21.0381 21.3914 20.352 20.7439C19.6659 20.0963 18.7614 19.5812 17.6387 19.1985C16.5159 18.8159 15.0033 18.4185 13.1008 18.0064C10.5434 17.4471 8.44756 16.8584 6.81331 16.2403C5.17282 15.6221 3.84733 14.7391 2.83684 13.5911C1.82011 12.4431 1.31175 10.9419 1.31175 9.08751C1.31175 7.32139 1.80452 5.75249 2.79006 4.38081C3.76936 3.01502 5.17282 1.95535 7.00043 1.20181C8.82181 0.45415 10.9332 0.0803223 13.3347 0.0803223C15.6114 0.0803223 17.7416 0.418829 19.7251 1.09584C21.7024 1.77285 23.3772 2.74421 24.7495 4.00993L23.2993 6.79156C21.7399 5.52584 20.1586 4.60452 18.5556 4.02759C16.9463 3.45655 15.206 3.17102 13.3347 3.17102C10.7773 3.17102 8.77503 3.67731 7.32791 4.68988C5.87455 5.70834 5.14787 7.13006 5.14787 8.95505C5.14787 10.5151 5.78722 11.6925 7.06593 12.4873C8.34464 13.282 10.2783 13.959 12.8669 14.5183C15.705 15.1659 17.9349 15.7605 19.5567 16.3021C21.1785 16.8496 22.5289 17.6679 23.608 18.757C24.6809 19.8461 25.2173 21.3031 25.2173 23.1281C25.2173 24.8942 24.7277 26.4396 23.7484 27.7642C22.7628 29.0888 21.35 30.1102 19.5099 30.8284C17.6698 31.5525 15.5179 31.9145 13.054 31.9145ZM42.5734 31.5613H38.6905V3.52425H27.229V0.433546H54.0818V3.52425H42.5734V31.5613ZM70.4555 31.9145C67.3991 31.9145 64.7387 31.267 62.4745 29.9718C60.2165 28.6767 58.4793 26.837 57.263 24.4527C56.0404 22.0684 55.4291 19.2574 55.4291 16.0195C55.4291 12.7522 56.031 9.91758 57.2349 7.51567C58.4388 5.11964 60.1697 3.27993 62.4277 1.99656C64.6919 0.719069 67.3679 0.0803223 70.4555 0.0803223C73.5369 0.0803223 76.2097 0.719069 78.4739 1.99656C80.7319 3.27993 82.4629 5.11964 83.6667 7.51567C84.8643 9.91758 85.4631 12.7375 85.4631 15.9754C85.4631 19.2132 84.8581 22.0302 83.648 24.4262C82.4317 26.8281 80.6914 28.6767 78.4271 29.9718C76.1691 31.267 73.5119 31.9145 70.4555 31.9145ZM70.4555 28.8238C73.9485 28.8238 76.6681 27.7112 78.6143 25.4859C80.5666 23.2665 81.5428 20.0963 81.5428 15.9754C81.5428 11.8544 80.576 8.69013 78.6423 6.48249C76.7087 4.27485 73.9797 3.17102 70.4555 3.17102C66.9624 3.17102 64.2397 4.28073 62.2874 6.50015C60.3412 8.72545 59.3682 11.8839 59.3682 15.9754C59.3682 20.0669 60.3412 23.2311 62.2874 25.4682C64.2397 27.7053 66.9624 28.8238 70.4555 28.8238ZM112.597 21.4062L118.351 31.5613H114.14L108.527 21.5828C107.841 20.3759 107.039 19.5429 106.122 19.0837C105.199 18.6304 103.942 18.4038 102.351 18.4038H96.1762V31.5613H92.3869V0.433546H105.954C109.54 0.433546 112.279 1.18414 114.169 2.68534C116.052 4.18654 116.994 6.39418 116.994 9.30827C116.994 11.722 116.271 13.6735 114.823 15.1629C113.37 16.6465 111.302 17.5796 108.62 17.9622C109.462 18.1977 110.205 18.5951 110.847 19.1544C111.483 19.7136 112.066 20.4642 112.597 21.4062ZM96.1762 15.4014H105.626C108.184 15.4014 110.095 14.901 111.362 13.9002C112.622 12.8994 113.252 11.3835 113.252 9.35242C113.252 7.35083 112.628 5.86435 111.38 4.89298C110.133 3.92162 108.215 3.43594 105.626 3.43594H96.1762V15.4014ZM140.151 22.9957L152.502 0.433546H155.636V31.5613H152.127L152.174 7.45385L141.461 26.6162H138.748L127.988 7.63046L128.035 31.5613H124.479V0.433546H127.66L140.151 22.9957Z" fill="#1A1A1A"/>
    </g>
    <defs>
        <clipPath id="clip0_21_406">
            <rect width="154.942" height="31.8342" fill="white" transform="translate(0.69873 0.0803223)"/>
        </clipPath>
    </defs>
</svg>